<?xml version="1.0" encoding="utf-8"?>
<!-- Generator: Adobe Illustrator 16.0.0, SVG Export Plug-In . SVG Version: 6.00 Build 0) -->
<!DOCTYPE svg PUBLIC "-//W3C//DTD SVG 1.1//EN" "http://www.w3.org/Graphics/SVG/1.1/DTD/svg11.dtd">
<svg version="1.1" id="图层_1" xmlns="http://www.w3.org/2000/svg" xmlns:xlink="http://www.w3.org/1999/xlink" x="0px" y="0px"
	 width="443.275px" height="185.604px" viewBox="0 0 443.275 185.604" enable-background="new 0 0 443.275 185.604"
	 xml:space="preserve">
  
  <!-- Define the animations for blinking and eye movement -->
  <style>
    @keyframes blink {
      0%, 90%, 100% { ry: 51.429px; } /* Eyes open */
      92%, 94% { ry: 5px; } /* Eyes closing */
    }

    /* Apply the animations to the eyes */
    .blink {
      animation: blink 6s infinite; /* 6-second cycle for blinking */
    }
  </style>

  <!-- Main SVG content -->
  <path fill="#00A0E9" d="M124.021,162.125c0,0,8.232,6.917,19.412,6.917c12.393,0,23.686-11.057,23.686-11.057
	s1.987,0.083,1.233,3.451c-0.701,3.126-1.233,3.451-1.233,3.451s-8.844,11.542-23.686,11.542c-13.541,0-19.412-7.402-19.412-7.402
	s-0.426-0.313-1.37-3.453C121.659,162.274,124.021,162.125,124.021,162.125z"/>
  <path fill="#00A0E9" d="M340.348,56.201c-5.601-8.476-12.91-15.044-21.926-19.714c-9.021-4.663-18.747-6.719-29.18-6.167
	l-22.199,1.182c-7.07,0.375-13.45,2.442-19.154,6.203c-5.08,3.349-9.076,7.702-12.112,12.941
	c9.366,11.573,15.434,26.699,16.326,43.492c1.093,20.551-5.83,39.39-17.641,52.82l0.515,9.733
	c0.484,9.084,3.733,16.288,9.754,21.622c6.017,5.33,13.569,7.754,22.648,7.271c8.081-0.432,14.825-3.614,20.25-9.55
	c5.415-5.941,7.916-12.948,7.488-21.021l-0.027-0.504c-0.143-2.692-1.583-4.3-4.314-4.834c-6.831-1.66-12.505-5.192-17.004-10.608
	c-4.513-5.409-6.952-11.729-7.338-18.97c-0.302-5.715,0.881-11.136,3.566-16.256c2.67-5.114,6.38-9.236,11.113-12.358
	c4.722-3.116,9.941-4.828,15.663-5.133l8.831-0.469c0.841-0.046,1.619,0.255,2.323,0.888c0.707,0.639,1.09,1.461,1.145,2.47
	c0.044,0.844-0.252,1.655-0.883,2.45c-0.629,0.792-1.367,1.216-2.209,1.26l-8.831,0.471c-6.901,0.366-12.694,3.118-17.403,8.259
	c-4.705,5.147-6.868,11.164-6.501,18.06c0.385,7.236,3.316,13.235,8.801,18.003c5.481,4.769,11.918,6.957,19.332,6.563
	c8.069-0.428,15.965-3.46,23.68-9.102c7.708-5.636,13.857-12.963,18.438-21.98c4.586-9.016,6.605-18.572,6.07-28.666
	C349.015,74.13,345.935,64.676,340.348,56.201z"/>
  <path xmlns="http://www.w3.org/2000/svg" fill="#009FE8" d="M99.005,32.432c-29.674,0-53.724,27.229-53.724,60.821c0,33.586,24.05,60.814,53.724,60.814  c29.667,0,53.72-27.229,53.72-60.814C152.725,59.66,128.673,32.432,99.005,32.432z"/>
<ellipse class="blink" xmlns="http://www.w3.org/2000/svg" fill="#FFFFFF" cx="99.005" cy="93.248" rx="45.048" ry="50.996"/>
  <path fill="#00A0E9" d="M189.682,32.414c-29.924,0-54.181,27.459-54.181,61.337c0,33.871,24.256,61.331,54.181,61.331
	c29.918,0,54.177-27.46,54.177-61.331C243.859,59.873,219.6,32.414,189.682,32.414z"/>
  
  <!-- Right eye with blinking and eyeball moving -->
  <ellipse class="blink" fill="#FFFFFF" cx="189.682" cy="93.746" rx="45.432" ry="51.429"/>

  
  <path fill="#00A0E9" d="M100.33,73.068c-13.459,0-24.372,12.398-24.372,27.686c0,15.29,10.913,27.688,24.372,27.688
	c13.464,0,24.377-12.397,24.377-27.688C124.707,85.466,113.793,73.068,100.33,73.068z M96.525,98.474
	c-4.064,0-7.364-3.748-7.364-8.367c0-4.627,3.3-8.37,7.364-8.37c4.07,0,7.37,3.743,7.37,8.37
	C103.895,94.726,100.595,98.474,96.525,98.474z"/>
  <path fill="#00A0E9" d="M189.682,70.79c-13.463,0-24.378,12.397-24.378,27.685c0,15.29,10.915,27.687,24.378,27.687
	c13.46,0,24.374-12.396,24.374-27.687C214.056,83.188,203.143,70.79,189.682,70.79z M184.378,98.474
	c-4.062,0-7.364-3.748-7.364-8.367c0-4.627,3.303-8.37,7.364-8.37c4.071,0,7.368,3.743,7.368,8.37
	C191.746,94.726,188.449,98.474,184.378,98.474z"/>
  <path fill="#00A0E9" d="M432.213,35.374c-6.788-4.829-14.764-6.965-23.929-6.396l-24.783,1.538
	c-4.985-3.464-10.748-4.998-17.286-4.593c-8.186,0.508-14.959,3.847-20.322,10.006c-2.997,3.447-5.042,7.189-6.213,11.21
	c3.475,3.264,6.646,6.866,9.399,10.945c6.236,9.277,9.716,19.652,10.43,31.132c0.688,11.104-1.438,21.646-6.403,31.615
	c-2.474,4.98-5.384,9.503-8.729,13.563c1.58,4.814,4.361,9.025,8.411,12.596c6.079,5.375,13.209,7.803,21.396,7.295
	c8.182-0.508,14.993-3.844,20.44-10.016c5.447-6.167,7.931-13.262,7.431-21.277l-2.012-32.397
	c-5.096-2.642-9.224-6.329-12.395-11.058c-3.166-4.733-4.926-9.96-5.281-15.688c-0.07-1.143,0.2-2.066,0.813-2.76
	c0.613-0.692,1.41-1.075,2.392-1.136c0.982-0.063,1.823,0.217,2.517,0.831c0.698,0.616,1.083,1.498,1.152,2.636
	c0.429,6.872,3.291,12.691,8.598,17.456c5.306,4.76,11.473,6.922,18.516,6.485c4.904-0.306,9.483-1.942,13.734-4.917
	c4.249-2.973,7.584-6.833,9.999-11.584c2.415-4.745,3.46-9.735,3.135-14.977C442.671,47.047,439.002,40.215,432.213,35.374z"/>
  <path fill="#00A0E9" d="M33.08,92.414c1.333-20.307,10.854-37.839,24.608-48.782l1.036-15.799
	c0.478-7.291-1.641-13.617-6.346-18.991c-4.716-5.374-10.712-8.3-18.004-8.778C27.241-0.405,20.948,1.716,15.5,6.424
	c-5.451,4.708-8.413,10.701-8.891,17.994l-6.546,99.809c-0.469,7.139,1.687,13.427,6.47,18.885
	c4.783,5.453,10.742,8.416,17.876,8.885c7.291,0.478,13.622-1.68,19.004-6.465c1.779-1.589,3.263-3.317,4.507-5.157
	C37.688,127.92,31.869,110.87,33.08,92.414z"/>
</svg>
